<svg width="556" height="440" viewBox="0 0 556 440" fill="none" xmlns="http://www.w3.org/2000/svg">
<path d="M0 86H470V290C470 372.843 402.843 440 320 440H0V86Z" fill="#5267DF"/>
<path d="M458 0H124C119.582 0 116 3.58172 116 8V338C116 342.418 119.582 346 124 346H458C462.418 346 466 342.418 466 338V8C466 3.58172 462.418 0 458 0Z" fill="#E8EAF6"/>
<mask id="mask0_13_358" style="mask-type:luminance" maskUnits="userSpaceOnUse" x="116" y="0" width="350" height="346">
<path d="M458 0H124C119.582 0 116 3.58172 116 8V338C116 342.418 119.582 346 124 346H458C462.418 346 466 342.418 466 338V8C466 3.58172 462.418 0 458 0Z" fill="white"/>
</mask>
<g mask="url(#mask0_13_358)">
<path fill-rule="evenodd" clip-rule="evenodd" d="M112.47 0.197021H659.47V59.197H112.47V0.197021Z" fill="#242A45"/>
<path opacity="0.245" d="M154.47 46.197C163.307 46.197 170.47 39.0336 170.47 30.197C170.47 21.3605 163.307 14.197 154.47 14.197C145.633 14.197 138.47 21.3605 138.47 30.197C138.47 39.0336 145.633 46.197 154.47 46.197Z" fill="white"/>
<path opacity="0.75" d="M302.47 20.197H188.47C186.813 20.197 185.47 21.5402 185.47 23.197C185.47 24.8539 186.813 26.197 188.47 26.197H302.47C304.127 26.197 305.47 24.8539 305.47 23.197C305.47 21.5402 304.127 20.197 302.47 20.197Z" fill="white"/>
<path opacity="0.25" d="M246.47 34.197H188.47C186.813 34.197 185.47 35.5402 185.47 37.197C185.47 38.8539 186.813 40.197 188.47 40.197H246.47C248.127 40.197 249.47 38.8539 249.47 37.197C249.47 35.5402 248.127 34.197 246.47 34.197Z" fill="white"/>
</g>
<path d="M372 85H151C146.582 85 143 88.5817 143 93V111C143 115.418 146.582 119 151 119H372C376.418 119 380 115.418 380 111V93C380 88.5817 376.418 85 372 85Z" fill="white"/>
<path d="M372 133H151C146.582 133 143 136.582 143 141V159C143 163.418 146.582 167 151 167H372C376.418 167 380 163.418 380 159V141C380 136.582 376.418 133 372 133Z" fill="white"/>
<path d="M372 181H151C146.582 181 143 184.582 143 189V207C143 211.418 146.582 215 151 215H372C376.418 215 380 211.418 380 207V189C380 184.582 376.418 181 372 181Z" fill="white"/>
<path d="M372 229H151C146.582 229 143 232.582 143 237V255C143 259.418 146.582 263 151 263H372C376.418 263 380 259.418 380 255V237C380 232.582 376.418 229 372 229Z" fill="white"/>
<path d="M372 277H151C146.582 277 143 280.582 143 285V303C143 307.418 146.582 311 151 311H372C376.418 311 380 307.418 380 303V285C380 280.582 376.418 277 372 277Z" fill="white"/>
<mask id="mask1_13_358" style="mask-type:luminance" maskUnits="userSpaceOnUse" x="206" y="83" width="350" height="296">
<path d="M556 83.0481H206.219V379H556V83.0481Z" fill="white"/>
</mask>
<g mask="url(#mask1_13_358)">
<path fill-rule="evenodd" clip-rule="evenodd" d="M207.293 333.34C207.963 335.358 209.008 337.338 210.467 339.275C235.669 372.749 329.843 383.907 422.691 377.089C471.167 373.527 505.361 352.563 526.972 333.339C531.658 329.173 536.117 324.759 540.332 320.117C545.001 314.972 548.645 309.257 551.242 303.222C558.889 285.444 557.416 264.906 546.119 248.061C536.542 233.785 523.397 223.237 516.606 211.518C503.674 189.2 572.043 132.782 527.552 97.1381C511.848 84.5541 478.392 81.6501 441.89 83.6021C397.462 85.9801 348.525 95.5571 321.606 103.647C265.894 120.384 231.026 144.627 223.067 171.903C215.109 199.179 236.378 211.521 254.947 237.557C272.442 262.083 196.394 300.554 207.293 333.34Z" fill="#3A499E"/>
</g>
<path fill-rule="evenodd" clip-rule="evenodd" d="M301.451 173.872L318.436 171L321 186.799L300 193L301.451 173.872Z" fill="#306299"/>
<path fill-rule="evenodd" clip-rule="evenodd" d="M319 172.118C319 172.118 332.176 171.77 346 166L339.504 178.254L320.751 184L319 172.118Z" fill="#FA9E89"/>
<mask id="mask2_13_358" style="mask-type:luminance" maskUnits="userSpaceOnUse" x="396" y="85" width="158" height="220">
<path d="M554 85.0481H396.175V304.892H554V85.0481Z" fill="white"/>
</mask>
<g mask="url(#mask2_13_358)">
<path opacity="0.152" fill-rule="evenodd" clip-rule="evenodd" d="M396.934 137.186C405.046 177.345 542.94 238.876 549.57 304.892C556.688 287.14 555.317 266.634 544.8 249.814C535.886 235.559 523.65 225.027 517.329 213.325C505.29 191.043 568.934 134.707 527.519 99.1171C512.9 86.5521 481.758 83.6521 447.779 85.6021C437.435 87.9661 389.615 100.933 396.934 137.186Z" fill="white"/>
</g>
<path opacity="0.149" fill-rule="evenodd" clip-rule="evenodd" d="M204.18 326C203.195 333.866 206.52 339.336 207.82 341.227C230.249 373.899 352.314 384.79 434.95 378.135C478.096 374.659 513.455 352.42 535 327.915L204.18 326Z" fill="black"/>
<path opacity="0.128" fill-rule="evenodd" clip-rule="evenodd" d="M482.373 329.812C482.373 329.812 492.45 330.422 492.295 333.472C492.14 336.522 485.784 343.23 485.784 343.23L495.293 339.825L524 338.732L520.9 341.401C520.9 341.401 497.773 342.468 496.74 343.281C495.706 344.094 482.476 354.057 480.203 354.463C477.929 354.87 333.515 354.688 333.515 354.688C333.515 354.688 318.657 355.277 316.176 350.702C313.696 346.128 304.704 346.432 302.223 350.397C299.743 354.362 300.087 369 300.087 369C300.087 369 293.294 367.227 292.921 367.069C269.356 357.106 243 326 243 326L482.373 329.812Z" fill="black"/>
<path fill-rule="evenodd" clip-rule="evenodd" d="M513 290.695L498.55 339.858C498.55 339.858 496.494 342.302 495 340.038L504.714 290L513 290.695ZM532.866 289L540 322.138L536.603 326L527 289.954L532.866 289Z" fill="#162F44"/>
<path fill-rule="evenodd" clip-rule="evenodd" d="M320.507 300.082L314.482 334.282L313.483 339.951L315.675 340.273L315.831 340.297L320.619 341C320.619 341 336.59 301.656 337.949 292.213C339.31 282.77 312.804 245 312.804 245L284.036 247.448C283.275 255.667 294.78 271.159 305.063 283.218C313.164 292.717 320.507 300.082 320.507 300.082Z" fill="#F4F2F9"/>
<path fill-rule="evenodd" clip-rule="evenodd" d="M320.12 298.535L313.243 338.302L315.389 338.623L315.462 339L315.542 338.648C316.417 334.818 326.682 300.911 326.994 294C327.327 286.674 312.967 264 312.967 264L305 281.714C312.93 291.188 320.12 298.534 320.12 298.534" fill="#E0DFEA"/>
<path fill-rule="evenodd" clip-rule="evenodd" d="M282 249L310.667 246.613L312 198.886C312 198.886 305 174 297.333 174C292.78 174 288.347 175.804 285.633 180.195C283.78 183.198 282.73 187.415 283 193.091C283.61 205.868 282.27 241.998 282.033 248.113C282.013 248.69 282 249 282 249Z" fill="#6397D9"/>
<path fill-rule="evenodd" clip-rule="evenodd" d="M289.885 245.276L289.347 188.458L296 174.938L288.237 174L285.508 177.21C283.718 180.213 282.705 184.43 282.966 190.104C283.555 202.878 282.229 239.886 282 246L289.885 245.276Z" fill="#8BBFF7"/>
<path fill-rule="evenodd" clip-rule="evenodd" d="M290 190L311.017 230L311.563 212.009L312 197.411L294.476 190H290Z" fill="#306299"/>
<path fill-rule="evenodd" clip-rule="evenodd" d="M343.671 353H472.33C477.119 353 481.001 349.092 481.001 344.27V123.73C481.001 118.908 477.119 115 472.33 115H343.67C338.881 115 334.999 118.908 334.999 123.73V344.27C334.999 349.092 338.881 353 343.67 353" fill="white"/>
<path fill-rule="evenodd" clip-rule="evenodd" d="M343 146.29V234.71C343 236.528 344.456 238 346.253 238H469.747C471.544 238 473 236.528 473 234.71V146.29C473 144.472 471.544 143 469.747 143H346.253C344.456 143 343 144.472 343 146.29Z" fill="#E4DCF1"/>
<path fill-rule="evenodd" clip-rule="evenodd" d="M407.147 167L408.699 168.183L412 182.554L411.929 184.921L406.702 185C406.347 185.005 405.989 184.935 405.672 184.75C404.177 183.872 403.539 181.425 404.364 179.257C404.808 178.091 405.945 176.027 406.077 175.115C406.391 172.931 407.147 167 407.147 167Z" fill="#8E2B43"/>
<path fill-rule="evenodd" clip-rule="evenodd" d="M380 241L434.224 240.792L436.019 240.786C436.019 240.786 442.506 210.137 432.003 198.325C429.445 195.451 426.12 193.332 422.497 191.955C411.224 187.658 397.044 190.5 394.004 199.921C389.988 212.372 380 241 380 241Z" fill="#4EC9B4"/>
<path fill-rule="evenodd" clip-rule="evenodd" d="M422.16 192.489C422.16 192.489 419.945 198.515 415.057 199.783C410.169 201.052 404.568 196.559 405.027 191.326C405.027 191.326 409.711 190.639 410.474 188.366C411.402 185.606 410.78 185.512 410.78 185.512C410.78 185.512 408.947 182.022 408.336 179.486C407.725 176.949 408.641 167.116 412.918 166.166C415.623 165.564 419.945 166.483 423 170.923C423 170.923 421.472 179.486 419.334 183.609C417.195 187.732 416.126 189.635 422.16 192.489Z" fill="#FA9E89"/>
<path opacity="0.184" fill-rule="evenodd" clip-rule="evenodd" d="M346.167 116.013L479 302.239V344.483C479 349.187 475.3 353 470.737 353H350.573C345.286 353 341 348.582 341 343.131V119.827C341 116.898 343.33 115.871 346.167 116.013Z" fill="#F4F2F9"/>
<path fill-rule="evenodd" clip-rule="evenodd" d="M386 222.442L379.018 192L368 193.816L378.684 238L386 222.442Z" fill="#4EC9B4"/>
<path fill-rule="evenodd" clip-rule="evenodd" d="M376.8 191.137L376.2 188.031C376.2 188.031 378 186.847 377.7 185.072C377.4 183.297 378 179.155 378 179.155C378 179.155 377.043 178.508 376.425 179.673C375.985 180.502 375.3 182.41 375.3 182.41C375.3 182.41 373.004 176.244 372.474 174.62C372.249 173.929 372.022 172.853 371.499 173.017C371.224 173.103 371.324 173.732 371.371 174.347C371.511 176.191 372.299 179.131 372.299 179.131L371.899 179.365L370.236 174.089C370.163 173.833 370.043 173.445 369.774 173.424C369.536 173.404 369.299 173.534 369.299 174.126C369.299 175.31 370.574 180.203 370.574 180.203L370.255 180.422L368.32 176.144C368.187 175.821 367.707 175.849 367.625 176.188C367.56 176.456 367.579 176.838 367.798 177.38C368.398 178.86 368.998 181.226 368.998 181.226L368.848 181.399L367.798 179.229C367.61 178.882 367.149 178.659 367.015 179.029C366.827 179.547 368.473 183.999 368.473 184.296C368.473 184.592 369.599 188.622 370.799 188.918C371.999 189.214 372.074 192 372.074 192L376.8 191.137Z" fill="#FA9E89"/>
<path fill-rule="evenodd" clip-rule="evenodd" d="M446.351 264H468.65C469.948 264 471.001 262.928 471.001 261.606V258.394C471.001 257.072 469.948 256 468.65 256H446.352C445.054 256 444.001 257.072 444.001 258.394V261.606C444.001 262.928 445.053 264 446.351 264ZM414.352 264H436.65C437.948 264 439.001 262.928 439.001 261.606V258.394C439.001 257.072 437.948 256 436.65 256H414.352C413.054 256 412.001 257.072 412.001 258.394V261.606C412.001 262.928 413.054 264 414.352 264ZM380.352 264H402.65C403.948 264 405.001 262.928 405.001 261.606V258.394C405.001 257.072 403.948 256 402.65 256H380.353C379.054 256 378.001 257.072 378.001 258.394V261.606C378.001 262.928 379.053 264 380.352 264ZM348.353 264H370.65C371.948 264 373.001 262.928 373.001 261.606V258.394C373.001 257.072 371.948 256 370.65 256H348.352C347.054 256 346.001 257.072 346.001 258.394V261.606C346.001 262.928 347.055 264 348.353 264Z" fill="#FFDEDD"/>
<path fill-rule="evenodd" clip-rule="evenodd" d="M350.547 283H468.453C469.86 283 471 281.92 471 280.59V277.41C471 276.08 469.86 275 468.453 275H350.547C349.14 275 348 276.08 348 277.41V280.59C348 281.92 349.14 283 350.547 283ZM468.453 299C469.86 299 471 297.92 471 296.59V293.41C471 292.08 469.86 291 468.453 291H350.547C349.14 291 348 292.08 348 293.41V296.59C348 297.92 349.14 299 350.547 299H468.453ZM350.547 315H468.453C469.86 315 471 313.92 471 312.59V309.41C471 308.08 469.86 307 468.453 307H350.547C349.14 307 348 308.08 348 309.41V312.59C348 313.92 349.14 315 350.547 315ZM350.547 328H468.453C469.86 328 471 326.92 471 325.59V322.41C471 321.08 469.86 320 468.453 320H350.547C349.14 320 348 321.08 348 322.41V325.59C348 326.92 349.14 328 350.547 328Z" fill="#F4F2F9"/>
<path fill-rule="evenodd" clip-rule="evenodd" d="M425.222 163.321C425.222 163.321 418.922 154.473 407.032 159.596C395.144 164.718 408.049 173.1 408.049 173.1C408.049 173.1 408.303 169.84 410.183 168.909L410.03 171.806L416.686 172.971L417.753 170.177L418.439 173.359L421.792 174.6C421.792 174.6 419.049 184.224 417.448 185.621C417.448 185.621 416.762 187.871 416.991 188.337C417.219 188.803 427.355 191.364 428.651 189.036C429.947 186.708 427.279 183.448 426.441 181.275C425.603 179.102 427.965 167.564 425.221 163.321" fill="#FC516B"/>
<path fill-rule="evenodd" clip-rule="evenodd" d="M454.352 139H471.648C472.947 139 474 137.657 474 136C474 134.343 472.947 133 471.648 133H454.352C453.053 133 452 134.343 452 136C452 137.657 453.053 139 454.352 139Z" fill="#E4DCF1"/>
<path fill-rule="evenodd" clip-rule="evenodd" d="M428 211C428 211 425.336 230.286 422.29 238H406.23C406.23 238 403.582 229.862 416.277 227.2C425.107 225.349 428 211 428 211ZM396.389 206C396.389 206 393.129 216 393.741 219C394.351 222 397 224.2 397 226.2C397 228.2 395.37 235.8 395.37 235.8L386 236C386 236 387.556 235.734 391.093 232.95C396.491 228.7 391.857 219.325 393.003 214C393.603 211.206 396.389 206 396.389 206ZM386 221.772C386 221.772 385.787 230.155 384.085 228.865C382.383 227.575 383.447 215.108 381.958 210.809C380.468 206.509 376 192.752 376 192.752L379.83 192L386 221.772Z" fill="#44AD99"/>
<path fill-rule="evenodd" clip-rule="evenodd" d="M360.623 183.475C360.623 183.475 359.047 184.167 357.123 186.521C356.487 187.301 353.093 188.542 352.29 189.509C340.645 203.529 325.094 214.35 315.127 210.042C302.397 204.54 300 199.424 300 199.424L308.414 188.062C308.414 188.062 318.077 202.821 325.848 198.801C333.62 194.781 348.94 184.244 348.94 184.244L349.346 177.78C349.346 177.78 350.241 177.54 350.67 178.775C351.1 180.011 351.12 181.079 351.12 181.079L357.169 174.055C357.169 174.055 358.331 173.695 357.977 174.824C357.623 175.954 355.486 179.192 355.486 179.192C355.486 179.192 355.266 179.808 355.729 179.527C356.269 179.2 360.495 174.435 360.495 174.435C360.495 174.435 361.468 174.371 361.071 175.301C360.764 176.018 358.206 179.391 357.341 180.655C357.083 181.031 357.623 180.89 357.623 180.89L361.119 177.92C361.592 177.601 362.082 177.707 361.989 178.288C361.914 178.748 360.962 179.807 360.396 180.227C358.982 181.273 357.996 183.179 357.996 183.179L361.04 182.079C361.04 182.079 361.635 182.607 360.623 183.475ZM289 146.49L292.85 174.81L305.496 177C305.496 177 304.856 176.332 304.124 175.44C303.376 174.533 302.534 173.39 302.161 172.474C301.311 170.37 301.305 168.408 301.305 168.408C301.305 168.408 306.913 169.041 307.782 165.813C308.654 162.581 306.639 147.529 306.639 147.529C306.639 147.529 304.136 138.07 289 146.49Z" fill="#FA9E89"/>
<path fill-rule="evenodd" clip-rule="evenodd" d="M299.613 146.812C299.613 146.812 305.849 151.522 311.832 147.51C311.832 147.51 308.04 147.16 306.86 145.242C306.86 145.242 309.22 145.852 312 141.928C312 141.928 307.113 142.626 305.428 141.143C303.742 139.66 295.148 137.305 290.008 140.881C284.867 144.457 284.951 147.074 284.951 147.074C284.951 147.074 281.918 148.207 282.001 149.952C282.086 151.696 289.501 166 289.501 166L291.102 159.633C291.102 159.633 289.838 160.011 289.08 157.046C288.322 154.08 291.608 155.359 291.945 155.97C292.282 156.58 294.473 151.783 294.473 151.783L294.136 148.993C294.136 148.993 293.04 145.415 299.613 146.812Z" fill="#261F27"/>
<path fill-rule="evenodd" clip-rule="evenodd" d="M287.786 279.384C291.377 293.871 284.736 351.793 284.736 351.793L291.234 353C317.394 292.985 311.41 244 311.41 244L282 246.414C282 246.414 282.075 245.19 282.106 245.48C282.444 248.488 284.514 266.169 287.786 279.384Z" fill="white"/>
<path fill-rule="evenodd" clip-rule="evenodd" d="M320.27 337.076L327.823 342.935C327.823 342.935 330.798 342.576 331.371 343.951C331.943 345.326 332 346.881 332 346.881L324.104 347L311 341.799L313.06 336L320.27 337.076ZM290.45 354.34C290.45 354.34 293.122 358.662 295.815 362.192C296.72 363.378 298.932 363.893 299.793 366.787C300.533 369.277 299.053 371 299.053 371C299.053 371 294.088 370.106 290.634 367.043C287.181 363.979 282 358.106 282 358.106L283.418 353L290.449 354.34H290.45Z" fill="#6397D9"/>
<path fill-rule="evenodd" clip-rule="evenodd" d="M490 282C490 285.866 502.984 289 519 289C535.016 289 548 285.866 548 282C548 278.134 535.016 275 519 275C502.984 275 490 278.134 490 282Z" fill="#224A7D"/>
<path fill-rule="evenodd" clip-rule="evenodd" d="M490 281C490 284.866 502.984 288 519 288C535.016 288 548 284.866 548 281C548 277.134 535.016 274 519 274C502.984 274 490 277.134 490 281Z" fill="#6397D9"/>
<path fill-rule="evenodd" clip-rule="evenodd" d="M511 277C511 278.657 516.373 280 523 280C529.627 280 535 278.657 535 277C535 275.343 529.627 274 523 274C516.373 274 511 275.343 511 277ZM548 280V283.986C548 283.986 547.93 286.45 543 288L544.179 283.682C544.179 283.682 547.642 282.187 548 280Z" fill="#162F44"/>
<path fill-rule="evenodd" clip-rule="evenodd" d="M490.006 280V284.085C490.006 284.085 489.616 286.128 495 288L493.348 283.234C493.348 283.234 490.488 281.957 490.006 280Z" fill="#8CC5F2"/>
<path fill-rule="evenodd" clip-rule="evenodd" d="M509 267.038L510.968 274.728C511.456 276.642 513.391 278 515.621 278H519.854C521.439 278 522.879 277.315 523.754 276.228C524.06 275.848 524.295 275.415 524.446 274.95L526.152 269.637L527 267L509 267.038Z" fill="#FC516B"/>
<path fill-rule="evenodd" clip-rule="evenodd" d="M509 266C509 266.552 513.03 267 518 267C522.97 267 527 266.552 527 266C527 265.448 522.97 265 518 265C513.03 265 509 265.448 509 266Z" fill="#9B293F"/>
<path fill-rule="evenodd" clip-rule="evenodd" d="M521.406 276.657C521.052 276.794 520.718 276.91 520.406 277L522.516 276.676C522.811 276.267 523.033 275.81 523.173 275.326L524.789 269.718C524.87 269.448 525 269.018 525 269C525 269 520.785 270.242 517 269.818C518.231 269.982 521.31 270.23 523.168 270.138C523.275 270.131 523.381 270.148 523.481 270.187C523.58 270.227 523.669 270.287 523.742 270.365C523.815 270.443 523.87 270.536 523.903 270.638C523.936 270.74 523.946 270.847 523.932 270.953C523.698 272.61 523.027 276.027 521.406 276.657Z" fill="#F995A9"/>
<path fill-rule="evenodd" clip-rule="evenodd" d="M517 263.901L517.679 266.988L518.173 267C518.173 267 518.201 263.901 521.847 262C525.497 260.1 524.974 253 524.974 253L524.971 253.009C524.883 253.192 523.483 256.109 522.422 256.299C521.328 256.501 520.649 258.249 520.649 258.249C520.649 258.249 520.127 258.999 519.502 258.849C518.876 258.699 518.251 260.349 518.251 260.349L518.044 262.101L517 263.901Z" fill="#51A595"/>
<path fill-rule="evenodd" clip-rule="evenodd" d="M521.993 269.987C521.993 269.987 522.693 246.551 510.393 240C510.393 240 506.892 241.352 510.993 246.967C515.093 252.582 511.792 256.637 513.593 258.094C515.393 259.549 517.993 260.485 517.593 262.357C517.193 264.229 517.693 266.101 518.493 266.309C519.293 266.516 521.093 267.621 521.373 270L521.993 269.987Z" fill="#4EC9B4"/>
<path fill-rule="evenodd" clip-rule="evenodd" d="M522 265.8L522.04 266.988L522.578 267C522.578 267 522.608 263.901 526.572 262C530.54 260.1 529.972 253 529.972 253L529.968 253.009L529.632 254.077C529.632 260.527 525.909 261.864 524.42 262.725C522.931 263.586 522 265.8 522 265.8Z" fill="#41877A"/>
<path fill-rule="evenodd" clip-rule="evenodd" d="M302.185 177.105C302.185 177.105 291.633 177.277 290.691 176L290 177.898C290 177.898 298.36 182.455 304 180.522L302.185 177.105Z" fill="#306299"/>
<path fill-rule="evenodd" clip-rule="evenodd" d="M317 190.916L304.412 205C304.412 205 287.59 189.918 288.008 185.19C288.425 180.463 294.588 170.675 304.042 179.667C313.24 188.415 317 190.916 317 190.916Z" fill="#8CC5F2"/>
<path fill-rule="evenodd" clip-rule="evenodd" d="M284.565 352.654L287.131 353C287.131 353 299.157 310.53 295.201 279.153C294.012 269.719 289.857 246 289.857 246L282 246.737C282.318 249.76 284.357 266.592 287.426 279.874C290.793 294.436 284.566 352.654 284.566 352.654" fill="#F4F2F9"/>
<path fill-rule="evenodd" clip-rule="evenodd" d="M298.253 175.558C299.741 175.882 300.552 175.985 301 176C300.302 175.034 299.516 173.818 299.168 172.842C298.375 170.601 298.369 168.512 298.369 168.512C298.369 168.512 295.398 167.73 295.092 168.099C294.788 168.467 295.092 174.869 298.253 175.558Z" fill="#E6846F"/>
<path fill-rule="evenodd" clip-rule="evenodd" d="M444 179C444 189.492 452.048 198 461.973 198C466.129 198 469.954 196.509 473 194.004V163.996C469.954 161.49 466.13 160 461.973 160C452.048 160 444 168.508 444 179Z" fill="#CEC3E2"/>
<path fill-rule="evenodd" clip-rule="evenodd" d="M444 179.5C444 189.716 451.493 198 460.734 198C464.604 198 468.164 196.548 471 194.11V164.89C468.165 162.453 464.603 161 460.734 161C451.493 161 444 169.284 444 179.5Z" fill="#C3B8D8"/>
<path fill-rule="evenodd" clip-rule="evenodd" d="M418 196.096C418 196.096 419.985 194.992 420.298 194.791C420.612 194.592 424.688 195.693 430.124 201.307C435.557 206.921 430.854 211.631 433.152 214.637C435.453 217.645 433.259 223.96 432.108 228.272C430.958 232.582 432.108 237.994 432.108 237.994L432.168 238L433.989 237.994C433.989 237.994 440.573 209.126 429.914 197.999C427.318 195.293 423.944 193.296 420.267 192L418 196.096Z" fill="#44AD99"/>
</svg>
