<svg width="596" height="462" viewBox="0 0 596 462" fill="none" xmlns="http://www.w3.org/2000/svg">
<path d="M0 82H467V362C467 417.228 422.228 462 367 462H0V82Z" fill="#5267DF"/>
<path d="M460 0H126C121.582 0 118 3.58172 118 8V338C118 342.418 121.582 346 126 346H460C464.418 346 468 342.418 468 338V8C468 3.58172 464.418 0 460 0Z" fill="#E8EAF6"/>
<mask id="mask0_13_281" style="mask-type:luminance" maskUnits="userSpaceOnUse" x="118" y="0" width="350" height="346">
<path d="M460 0H126C121.582 0 118 3.58172 118 8V338C118 342.418 121.582 346 126 346H460C464.418 346 468 342.418 468 338V8C468 3.58172 464.418 0 460 0Z" fill="white"/>
</mask>
<g mask="url(#mask0_13_281)">
<path fill-rule="evenodd" clip-rule="evenodd" d="M114.47 0.197021H661.47V59.197H114.47V0.197021Z" fill="#242A45"/>
<path opacity="0.245" d="M156.47 46.197C165.307 46.197 172.47 39.0336 172.47 30.197C172.47 21.3605 165.307 14.197 156.47 14.197C147.633 14.197 140.47 21.3605 140.47 30.197C140.47 39.0336 147.633 46.197 156.47 46.197Z" fill="white"/>
<path opacity="0.75" d="M304.47 20.197H190.47C188.813 20.197 187.47 21.5402 187.47 23.197C187.47 24.8539 188.813 26.197 190.47 26.197H304.47C306.127 26.197 307.47 24.8539 307.47 23.197C307.47 21.5402 306.127 20.197 304.47 20.197Z" fill="white"/>
<path opacity="0.25" d="M248.47 34.197H190.47C188.813 34.197 187.47 35.5402 187.47 37.197C187.47 38.8539 188.813 40.197 190.47 40.197H248.47C250.127 40.197 251.47 38.8539 251.47 37.197C251.47 35.5402 250.127 34.197 248.47 34.197Z" fill="white"/>
</g>
<g filter="url(#filter0_d_13_281)">
<path d="M337 138H153C148.582 138 145 141.582 145 146V385C145 389.418 148.582 393 153 393H337C341.418 393 345 389.418 345 385V146C345 141.582 341.418 138 337 138Z" fill="black"/>
</g>
<path d="M337 138H153C148.582 138 145 141.582 145 146V385C145 389.418 148.582 393 153 393H337C341.418 393 345 389.418 345 385V146C345 141.582 341.418 138 337 138Z" fill="white"/>
<path opacity="0.5" d="M312 173H216.683C215.026 173 213.683 174.343 213.683 176C213.683 177.657 215.026 179 216.683 179H312C313.657 179 315 177.657 315 176C315 174.343 313.657 173 312 173Z" fill="#242A45"/>
<path d="M184 199C192.837 199 200 191.837 200 183C200 174.163 192.837 167 184 167C175.163 167 168 174.163 168 183C168 191.837 175.163 199 184 199Z" fill="#5267DF"/>
<path opacity="0.25" d="M264.719 187H216.683C215.026 187 213.683 188.343 213.683 190C213.683 191.657 215.026 193 216.683 193H264.719C266.376 193 267.719 191.657 267.719 190C267.719 188.343 266.376 187 264.719 187Z" fill="#242A45"/>
<path d="M184 255C192.837 255 200 247.837 200 239C200 230.163 192.837 223 184 223C175.163 223 168 230.163 168 239C168 247.837 175.163 255 184 255Z" fill="#5267DF"/>
<path opacity="0.5" d="M312 229H216.683C215.026 229 213.683 230.343 213.683 232C213.683 233.657 215.026 235 216.683 235H312C313.657 235 315 233.657 315 232C315 230.343 313.657 229 312 229Z" fill="#242A45"/>
<path opacity="0.25" d="M264.719 243H216.683C215.026 243 213.683 244.343 213.683 246C213.683 247.657 215.026 249 216.683 249H264.719C266.376 249 267.719 247.657 267.719 246C267.719 244.343 266.376 243 264.719 243Z" fill="#242A45"/>
<path d="M184 311C192.837 311 200 303.837 200 295C200 286.163 192.837 279 184 279C175.163 279 168 286.163 168 295C168 303.837 175.163 311 184 311Z" fill="#5267DF"/>
<path opacity="0.5" d="M312 285H216.683C215.026 285 213.683 286.343 213.683 288C213.683 289.657 215.026 291 216.683 291H312C313.657 291 315 289.657 315 288C315 286.343 313.657 285 312 285Z" fill="#242A45"/>
<path opacity="0.25" d="M264.719 299H216.683C215.026 299 213.683 300.343 213.683 302C213.683 303.657 215.026 305 216.683 305H264.719C266.376 305 267.719 303.657 267.719 302C267.719 300.343 266.376 299 264.719 299Z" fill="#242A45"/>
<path d="M184 367C192.837 367 200 359.837 200 351C200 342.163 192.837 335 184 335C175.163 335 168 342.163 168 351C168 359.837 175.163 367 184 367Z" fill="#5267DF"/>
<path opacity="0.5" d="M312 341H216.683C215.026 341 213.683 342.343 213.683 344C213.683 345.657 215.026 347 216.683 347H312C313.657 347 315 345.657 315 344C315 342.343 313.657 341 312 341Z" fill="#242A45"/>
<path opacity="0.25" d="M264.719 355H216.683C215.026 355 213.683 356.343 213.683 358C213.683 359.657 215.026 361 216.683 361H264.719C266.376 361 267.719 359.657 267.719 358C267.719 356.343 266.376 355 264.719 355Z" fill="#242A45"/>
<g filter="url(#filter1_d_13_281)">
<g filter="url(#filter2_d_13_281)">
<path d="M561 138H377C372.582 138 369 141.582 369 146V385C369 389.418 372.582 393 377 393H561C565.418 393 569 389.418 569 385V146C569 141.582 565.418 138 561 138Z" fill="black"/>
</g>
<path d="M561 138H377C372.582 138 369 141.582 369 146V385C369 389.418 372.582 393 377 393H561C565.418 393 569 389.418 569 385V146C569 141.582 565.418 138 561 138Z" fill="white"/>
<path opacity="0.5" d="M536 173H440.683C439.026 173 437.683 174.343 437.683 176C437.683 177.657 439.026 179 440.683 179H536C537.657 179 539 177.657 539 176C539 174.343 537.657 173 536 173Z" fill="#242A45"/>
<path d="M408 199C416.837 199 424 191.837 424 183C424 174.163 416.837 167 408 167C399.163 167 392 174.163 392 183C392 191.837 399.163 199 408 199Z" fill="#5267DF"/>
<path opacity="0.25" d="M488.719 187H440.683C439.026 187 437.683 188.343 437.683 190C437.683 191.657 439.026 193 440.683 193H488.719C490.376 193 491.719 191.657 491.719 190C491.719 188.343 490.376 187 488.719 187Z" fill="#242A45"/>
<path d="M408 255C416.837 255 424 247.837 424 239C424 230.163 416.837 223 408 223C399.163 223 392 230.163 392 239C392 247.837 399.163 255 408 255Z" fill="#FA5959"/>
<path opacity="0.5" d="M536 229H440.683C439.026 229 437.683 230.343 437.683 232C437.683 233.657 439.026 235 440.683 235H536C537.657 235 539 233.657 539 232C539 230.343 537.657 229 536 229Z" fill="#242A45"/>
<path opacity="0.25" d="M488.719 243H440.683C439.026 243 437.683 244.343 437.683 246C437.683 247.657 439.026 249 440.683 249H488.719C490.376 249 491.719 247.657 491.719 246C491.719 244.343 490.376 243 488.719 243Z" fill="#242A45"/>
<path d="M408 311C416.837 311 424 303.837 424 295C424 286.163 416.837 279 408 279C399.163 279 392 286.163 392 295C392 303.837 399.163 311 408 311Z" fill="#5267DF"/>
<path opacity="0.5" d="M536 285H440.683C439.026 285 437.683 286.343 437.683 288C437.683 289.657 439.026 291 440.683 291H536C537.657 291 539 289.657 539 288C539 286.343 537.657 285 536 285Z" fill="#242A45"/>
<path opacity="0.25" d="M488.719 299H440.683C439.026 299 437.683 300.343 437.683 302C437.683 303.657 439.026 305 440.683 305H488.719C490.376 305 491.719 303.657 491.719 302C491.719 300.343 490.376 299 488.719 299Z" fill="#242A45"/>
<path d="M408 367C416.837 367 424 359.837 424 351C424 342.163 416.837 335 408 335C399.163 335 392 342.163 392 351C392 359.837 399.163 367 408 367Z" fill="#5267DF"/>
<path opacity="0.5" d="M536 341H440.683C439.026 341 437.683 342.343 437.683 344C437.683 345.657 439.026 347 440.683 347H536C537.657 347 539 345.657 539 344C539 342.343 537.657 341 536 341Z" fill="#242A45"/>
<path opacity="0.25" d="M488.719 355H440.683C439.026 355 437.683 356.343 437.683 358C437.683 359.657 439.026 361 440.683 361H488.719C490.376 361 491.719 359.657 491.719 358C491.719 356.343 490.376 355 488.719 355Z" fill="#242A45"/>
</g>
<path d="M374 85H153C148.582 85 145 88.5817 145 93V111C145 115.418 148.582 119 153 119H374C378.418 119 382 115.418 382 111V93C382 88.5817 378.418 85 374 85Z" fill="white"/>
<path d="M490 236C527.003 236 557 206.003 557 169C557 131.997 527.003 102 490 102C452.997 102 423 131.997 423 169C423 206.003 452.997 236 490 236Z" fill="#495DCF" fill-opacity="0.2" stroke="#5267DF" stroke-width="20"/>
<path d="M537 217L586 266" stroke="#5267DF" stroke-width="20" stroke-linecap="round" stroke-linejoin="round"/>
<defs>
<filter id="filter0_d_13_281" x="135" y="133" width="220" height="275" filterUnits="userSpaceOnUse" color-interpolation-filters="sRGB">
<feFlood flood-opacity="0" result="BackgroundImageFix"/>
<feColorMatrix in="SourceAlpha" type="matrix" values="0 0 0 0 0 0 0 0 0 0 0 0 0 0 0 0 0 0 127 0" result="hardAlpha"/>
<feOffset dy="5"/>
<feGaussianBlur stdDeviation="5"/>
<feColorMatrix type="matrix" values="0 0 0 0 0.285333 0 0 0 0 0.363695 0 0 0 0 0.811481 0 0 0 0.0830693 0"/>
<feBlend mode="normal" in2="BackgroundImageFix" result="effect1_dropShadow_13_281"/>
<feBlend mode="normal" in="SourceGraphic" in2="effect1_dropShadow_13_281" result="shape"/>
</filter>
<filter id="filter1_d_13_281" x="359" y="133" width="220" height="275" filterUnits="userSpaceOnUse" color-interpolation-filters="sRGB">
<feFlood flood-opacity="0" result="BackgroundImageFix"/>
<feColorMatrix in="SourceAlpha" type="matrix" values="0 0 0 0 0 0 0 0 0 0 0 0 0 0 0 0 0 0 127 0" result="hardAlpha"/>
<feOffset dy="5"/>
<feGaussianBlur stdDeviation="5"/>
<feColorMatrix type="matrix" values="0 0 0 0 0.285333 0 0 0 0 0.363695 0 0 0 0 0.811481 0 0 0 0.0830693 0"/>
<feBlend mode="normal" in2="BackgroundImageFix" result="effect1_dropShadow_13_281"/>
<feBlend mode="normal" in="SourceGraphic" in2="effect1_dropShadow_13_281" result="shape"/>
</filter>
<filter id="filter2_d_13_281" x="359" y="133" width="220" height="275" filterUnits="userSpaceOnUse" color-interpolation-filters="sRGB">
<feFlood flood-opacity="0" result="BackgroundImageFix"/>
<feColorMatrix in="SourceAlpha" type="matrix" values="0 0 0 0 0 0 0 0 0 0 0 0 0 0 0 0 0 0 127 0" result="hardAlpha"/>
<feOffset dy="5"/>
<feGaussianBlur stdDeviation="5"/>
<feColorMatrix type="matrix" values="0 0 0 0 0.285333 0 0 0 0 0.363695 0 0 0 0 0.811481 0 0 0 0.0830693 0"/>
<feBlend mode="normal" in2="BackgroundImageFix" result="effect1_dropShadow_13_281"/>
<feBlend mode="normal" in="SourceGraphic" in2="effect1_dropShadow_13_281" result="shape"/>
</filter>
</defs>
</svg>
