<svg width="636" height="430" viewBox="0 0 636 430" fill="none" xmlns="http://www.w3.org/2000/svg">
<path d="M0 83H560V330C560 385.228 515.228 430 460 430H0V83Z" fill="#5267DF"/>
<g clip-path="url(#clip0_13_93)">
<path d="M628 0H108C103.582 0 100 3.58172 100 8V338C100 342.418 103.582 346 108 346H628C632.418 346 636 342.418 636 338V8C636 3.58172 632.418 0 628 0Z" fill="#E8EAF6"/>
<mask id="mask0_13_93" style="mask-type:luminance" maskUnits="userSpaceOnUse" x="100" y="0" width="536" height="346">
<path d="M628 0H108C103.582 0 100 3.58172 100 8V338C100 342.418 103.582 346 108 346H628C632.418 346 636 342.418 636 338V8C636 3.58172 632.418 0 628 0Z" fill="white"/>
</mask>
<g mask="url(#mask0_13_93)">
<path fill-rule="evenodd" clip-rule="evenodd" d="M96.47 0.197006H643.47V59.197H96.47V0.197006Z" fill="#242A45"/>
<path opacity="0.245" d="M138.47 46.197C147.307 46.197 154.47 39.0336 154.47 30.197C154.47 21.3605 147.307 14.197 138.47 14.197C129.633 14.197 122.47 21.3605 122.47 30.197C122.47 39.0336 129.633 46.197 138.47 46.197Z" fill="white"/>
<path opacity="0.104" d="M599.47 46.197C608.307 46.197 615.47 39.0336 615.47 30.197C615.47 21.3605 608.307 14.197 599.47 14.197C590.633 14.197 583.47 21.3605 583.47 30.197C583.47 39.0336 590.633 46.197 599.47 46.197Z" fill="white"/>
<path opacity="0.75" d="M286.47 20.197H172.47C170.813 20.197 169.47 21.5402 169.47 23.197C169.47 24.8539 170.813 26.197 172.47 26.197H286.47C288.127 26.197 289.47 24.8539 289.47 23.197C289.47 21.5402 288.127 20.197 286.47 20.197Z" fill="white"/>
<path opacity="0.25" d="M230.47 34.197H172.47C170.813 34.197 169.47 35.5402 169.47 37.197C169.47 38.8539 170.813 40.197 172.47 40.197H230.47C232.127 40.197 233.47 38.8539 233.47 37.197C233.47 35.5402 232.127 34.197 230.47 34.197Z" fill="white"/>
</g>
<mask id="mask1_13_93" style="mask-type:luminance" maskUnits="userSpaceOnUse" x="100" y="0" width="536" height="346">
<path d="M628 0H108C103.582 0 100 3.58172 100 8V338C100 342.418 103.582 346 108 346H628C632.418 346 636 342.418 636 338V8C636 3.58172 632.418 0 628 0Z" fill="white"/>
</mask>
<g mask="url(#mask1_13_93)">
<path d="M410 93H165C160.582 93 157 96.5817 157 101V401C157 405.418 160.582 409 165 409H410C414.418 409 418 405.418 418 401V101C418 96.5817 414.418 93 410 93Z" fill="white"/>
<path d="M572 93H460C455.582 93 452 96.5817 452 101V401C452 405.418 455.582 409 460 409H572C576.418 409 580 405.418 580 401V101C580 96.5817 576.418 93 572 93Z" fill="white"/>
<path opacity="0.5" d="M352.47 131.197H238.47C236.813 131.197 235.47 132.54 235.47 134.197C235.47 135.854 236.813 137.197 238.47 137.197H352.47C354.127 137.197 355.47 135.854 355.47 134.197C355.47 132.54 354.127 131.197 352.47 131.197Z" fill="#242A45"/>
</g>
<path d="M204.47 157.197C213.307 157.197 220.47 150.034 220.47 141.197C220.47 132.36 213.307 125.197 204.47 125.197C195.633 125.197 188.47 132.36 188.47 141.197C188.47 150.034 195.633 157.197 204.47 157.197Z" fill="#F98E5D"/>
<path opacity="0.25" d="M557.47 115.197H475.47C473.813 115.197 472.47 116.54 472.47 118.197C472.47 119.854 473.813 121.197 475.47 121.197H557.47C559.127 121.197 560.47 119.854 560.47 118.197C560.47 116.54 559.127 115.197 557.47 115.197Z" fill="#242A45"/>
<path opacity="0.25" d="M557.47 135.197H475.47C473.813 135.197 472.47 136.54 472.47 138.197C472.47 139.854 473.813 141.197 475.47 141.197H557.47C559.127 141.197 560.47 139.854 560.47 138.197C560.47 136.54 559.127 135.197 557.47 135.197Z" fill="#242A45"/>
<path opacity="0.25" d="M557.47 155.197H475.47C473.813 155.197 472.47 156.54 472.47 158.197C472.47 159.854 473.813 161.197 475.47 161.197H557.47C559.127 161.197 560.47 159.854 560.47 158.197C560.47 156.54 559.127 155.197 557.47 155.197Z" fill="#242A45"/>
<path opacity="0.25" d="M557.47 175.197H475.47C473.813 175.197 472.47 176.54 472.47 178.197C472.47 179.854 473.813 181.197 475.47 181.197H557.47C559.127 181.197 560.47 179.854 560.47 178.197C560.47 176.54 559.127 175.197 557.47 175.197Z" fill="#242A45"/>
<path opacity="0.25" d="M557.47 209.197H475.47C473.813 209.197 472.47 210.54 472.47 212.197C472.47 213.854 473.813 215.197 475.47 215.197H557.47C559.127 215.197 560.47 213.854 560.47 212.197C560.47 210.54 559.127 209.197 557.47 209.197Z" fill="#242A45"/>
<path opacity="0.25" d="M557.47 229.197H475.47C473.813 229.197 472.47 230.54 472.47 232.197C472.47 233.854 473.813 235.197 475.47 235.197H557.47C559.127 235.197 560.47 233.854 560.47 232.197C560.47 230.54 559.127 229.197 557.47 229.197Z" fill="#242A45"/>
<path opacity="0.25" d="M557.47 249.197H475.47C473.813 249.197 472.47 250.54 472.47 252.197C472.47 253.854 473.813 255.197 475.47 255.197H557.47C559.127 255.197 560.47 253.854 560.47 252.197C560.47 250.54 559.127 249.197 557.47 249.197Z" fill="#242A45"/>
<path opacity="0.25" d="M296.47 145.197H238.47C236.813 145.197 235.47 146.54 235.47 148.197C235.47 149.854 236.813 151.197 238.47 151.197H296.47C298.127 151.197 299.47 149.854 299.47 148.197C299.47 146.54 298.127 145.197 296.47 145.197Z" fill="#242A45"/>
<path d="M204.47 213.197C213.307 213.197 220.47 206.034 220.47 197.197C220.47 188.36 213.307 181.197 204.47 181.197C195.633 181.197 188.47 188.36 188.47 197.197C188.47 206.034 195.633 213.197 204.47 213.197Z" fill="#6AC6D6"/>
<path opacity="0.5" d="M352.47 187.197H238.47C236.813 187.197 235.47 188.54 235.47 190.197C235.47 191.854 236.813 193.197 238.47 193.197H352.47C354.127 193.197 355.47 191.854 355.47 190.197C355.47 188.54 354.127 187.197 352.47 187.197Z" fill="#242A45"/>
<path opacity="0.25" d="M296.47 201.197H238.47C236.813 201.197 235.47 202.54 235.47 204.197C235.47 205.854 236.813 207.197 238.47 207.197H296.47C298.127 207.197 299.47 205.854 299.47 204.197C299.47 202.54 298.127 201.197 296.47 201.197Z" fill="#242A45"/>
<path d="M204.47 269.197C213.307 269.197 220.47 262.034 220.47 253.197C220.47 244.36 213.307 237.197 204.47 237.197C195.633 237.197 188.47 244.36 188.47 253.197C188.47 262.034 195.633 269.197 204.47 269.197Z" fill="#A47ED4"/>
<path opacity="0.5" d="M352.47 243.197H238.47C236.813 243.197 235.47 244.54 235.47 246.197C235.47 247.854 236.813 249.197 238.47 249.197H352.47C354.127 249.197 355.47 247.854 355.47 246.197C355.47 244.54 354.127 243.197 352.47 243.197Z" fill="#242A45"/>
<path opacity="0.25" d="M296.47 257.197H238.47C236.813 257.197 235.47 258.54 235.47 260.197C235.47 261.854 236.813 263.197 238.47 263.197H296.47C298.127 263.197 299.47 261.854 299.47 260.197C299.47 258.54 298.127 257.197 296.47 257.197Z" fill="#242A45"/>
<path d="M204.47 325.197C213.307 325.197 220.47 318.034 220.47 309.197C220.47 300.36 213.307 293.197 204.47 293.197C195.633 293.197 188.47 300.36 188.47 309.197C188.47 318.034 195.633 325.197 204.47 325.197Z" fill="#EC7878"/>
<path opacity="0.5" d="M352.47 299.197H238.47C236.813 299.197 235.47 300.54 235.47 302.197C235.47 303.854 236.813 305.197 238.47 305.197H352.47C354.127 305.197 355.47 303.854 355.47 302.197C355.47 300.54 354.127 299.197 352.47 299.197Z" fill="#242A45"/>
<path opacity="0.25" d="M296.47 313.197H238.47C236.813 313.197 235.47 314.54 235.47 316.197C235.47 317.854 236.813 319.197 238.47 319.197H296.47C298.127 319.197 299.47 317.854 299.47 316.197C299.47 314.54 298.127 313.197 296.47 313.197Z" fill="#242A45"/>
</g>
<defs>
<clipPath id="clip0_13_93">
<rect width="536" height="346" fill="white" transform="translate(100)"/>
</clipPath>
</defs>
</svg>
